<svg id="Layer_3" data-name="Layer 3" xmlns="http://www.w3.org/2000/svg" viewBox="0 0 600 600">
  <title>old_clock</title>
  <g id="clock_face">
    <path id="rim" d="M300,91.5C185,91.5,91.5,185,91.5,300S185,508.5,300,508.5,508.5,415,508.5,300,415,91.5,300,91.5ZM190,448.64l-8.64,11.64c-5.33-4-10.47-8.18-15.37-12.64L175.78,437C180.31,441.09,185.06,445,190,448.64Zm.81.59q7.1,5.2,14.67,9.73l-7.31,12.52q-8.27-4.94-16-10.62ZM208,460.49q7.43,4.26,15.27,7.85l-6,13.18q-8.49-3.88-16.55-8.51Zm16.18,8.27c5.56,2.5,11.28,4.74,17.12,6.7l-4.62,13.75a199.08,199.08,0,0,1-18.54-7.27Zm18.07,7q8.69,2.87,17.73,4.87l-3.15,14.15q-9.78-2.16-19.2-5.27ZM261,480.85a183.57,183.57,0,0,0,18.15,3l-1.66,14.4A198.5,198.5,0,0,1,257.85,495Zm19.14,3.08A187.16,187.16,0,0,0,299.77,485l.1,14.5a203.81,203.81,0,0,1-21.38-1.16Zm22.63,1q7.62-.1,15.1-.83l1.38,14.44c-5.4.52-10.87.82-16.38.89Zm16.1-.91q9.22-.94,18.17-2.78l2.89,14.21a199.17,199.17,0,0,1-19.69,3Zm19.15-3a182.17,182.17,0,0,0,17.79-4.67l4.35,13.83a196.38,196.38,0,0,1-19.25,5.06Zm18.74-5A182,182,0,0,0,374,469.56l5.78,13.3q-9.09,4-18.62,7.05Zm18.11-6.92q8.43-3.75,16.41-8.29l7.13,12.61a198.12,198.12,0,0,1-17.76,9ZM394,459.29q7-4.16,13.62-8.88l8.41,11.8q-7.15,5.13-14.77,9.63Zm14.42-9.47q7.46-5.42,14.33-11.52l9.6,10.85q-7.44,6.62-15.51,12.47ZM300,482c-100.35,0-182-81.64-182-182s81.65-182,182-182,182,81.65,182,182S400.36,482,300,482ZM151.57,189.7,140,181q6-8,12.66-15.35l10.65,9.83Q157.08,182.32,151.57,189.7Zm-.59.81a186.35,186.35,0,0,0-10.78,16.37l-12.58-7.2a200.08,200.08,0,0,1,11.74-17.83Zm-12.27,19q-3.72,6.6-6.9,13.51l-13.17-6.05c2.29-5,4.8-9.89,7.48-14.65Zm-7.32,14.42A183.6,183.6,0,0,0,124.65,241l-13.74-4.65a197.81,197.81,0,0,1,7.3-18.52Zm-7,18.06a181.75,181.75,0,0,0-4.9,17.72l-14.15-3.18a199.08,199.08,0,0,1,5.31-19.19Zm-5.12,18.7q-1.93,8.93-3,18.14l-14.4-1.68a195.68,195.68,0,0,1,3.26-19.64Zm-3.11,19.14A186.15,186.15,0,0,0,115,299l-14.5,0a199.75,199.75,0,0,1,1.2-20.87ZM100.53,302,115,302c.06,5.24.33,10.44.82,15.57l-14.44,1.35C100.87,313.31,100.58,307.67,100.53,302Zm15.39,16.54q.93,9.23,2.74,18.18l-14.21,2.86a196.63,196.63,0,0,1-3-19.69Zm2.94,19.16q1.89,9.07,4.64,17.8l-13.84,4.32q-3-9.44-5-19.26Zm5,18.75a181,181,0,0,0,6.49,17.2L117,379.38a199,199,0,0,1-7-18.62Zm6.89,18.12q3.66,8.28,8.1,16.12l-12.58,7.21q-4.83-8.53-8.83-17.58Zm9.59,18.72q4.25,7.25,9.1,14l-11.82,8.4q-5.26-7.38-9.85-15.23ZM150,408.12q5.39,7.45,11.49,14.35l-10.87,9.58q-6.6-7.46-12.44-15.54ZM409.45,151l8.6-11.67q8,5.91,15.42,12.58l-9.77,10.7Q416.88,156.41,409.45,151Zm-.8-.59q-7-5.07-14.4-9.49l7.28-12.53q8.12,4.82,15.71,10.35Zm-17-11q-7.59-4.35-15.6-8l6-13.21q8.68,3.93,16.91,8.65ZM375.14,131q-8.36-3.72-17.14-6.64l4.56-13.76a198.11,198.11,0,0,1,18.57,7.2Zm-18.09-7q-8.7-2.82-17.76-4.8l3.11-14.16a198.24,198.24,0,0,1,19.21,5.2Zm-18.73-5q-8.94-1.89-18.16-2.9l1.6-14.41a198.79,198.79,0,0,1,19.66,3.15Zm-19.16-3q-8.71-.9-17.66-1v-14.5q9.75.08,19.27,1.06Zm-20.66-1c-5.28,0-10.51.31-15.67.78l-1.33-14.43q8.42-.78,17-.85Zm-16.67.87q-9.24.92-18.19,2.71l-2.83-14.23q9.69-1.94,19.7-2.92Zm-19.17,2.9a181.37,181.37,0,0,0-17.8,4.6l-4.31-13.84a196.7,196.7,0,0,1,19.28-5ZM243.9,123.7q-8.81,2.82-17.21,6.46L221,116.84q9.1-3.95,18.64-7Zm-18.13,6.86a185.27,185.27,0,0,0-17.52,8.84L201,126.87A200.54,200.54,0,0,1,220,117.24Zm-20.11,10.36q-6.51,3.89-12.69,8.26l-8.37-11.83q6.68-4.75,13.77-9Zm-13.5,8.85q-7.47,5.39-14.37,11.47l-9.56-10.89a198.14,198.14,0,0,1,15.56-12.41Zm289,112.84,14.21-2.91q2,9.69,3,19.68L484,280.79Q483.05,271.56,481.2,262.61Zm-.21-1a182.13,182.13,0,0,0-4.71-17.78l13.83-4.38q3,9.44,5.09,19.25Zm-5-18.73a182,182,0,0,0-6.55-17.18l13.29-5.8a198,198,0,0,1,7.09,18.6Zm-7-18.1q-3.63-8.1-8-15.78l12.56-7.23q4.75,8.37,8.7,17.21Zm-9.48-18.37q-4.35-7.38-9.34-14.32L462,183.69q5.4,7.5,10.11,15.51Zm-9.93-15.12q-5.42-7.44-11.54-14.31l10.84-9.62q6.61,7.43,12.49,15.49Zm-.77,218.42,11.66,8.61c-3.95,5.34-8.16,10.49-12.61,15.4L437.21,424Q443.36,417.15,448.84,409.74Zm.59-.81q5.32-7.29,9.95-15.1l12.55,7.26q-5,8.51-10.84,16.46Zm11.46-17.69q4.11-7.23,7.6-14.86l13.19,6q-3.76,8.26-8.24,16.12Zm8-15.78q3.74-8.35,6.67-17.13l13.75,4.59a195.2,195.2,0,0,1-7.23,18.55Zm7-18.08q2.83-8.7,4.83-17.74l14.16,3.12A195.57,195.57,0,0,1,489.63,362Zm5-18.72a183.73,183.73,0,0,0,2.94-18.16l14.41,1.63a198.85,198.85,0,0,1-3.19,19.66ZM484,319.51a185.24,185.24,0,0,0,1-18.8l14.5-.06a201,201,0,0,1-1.11,20.49Zm15.5-21.86-14.5.06c-.06-5.36-.35-10.68-.87-15.93l14.43-1.4Q499.37,288.91,499.47,297.65Zm-51.23-131-10.83,9.62q-6.17-6.82-13-13l9.77-10.71Q441.57,159.23,448.24,166.64ZM167.48,151l9.57,10.89q-6.87,6.12-13.11,12.89L153.29,165Q160,157.64,167.48,151ZM151.26,432.8l10.87-9.58q6.13,6.84,12.91,13.07L165.23,447A198.55,198.55,0,0,1,151.26,432.8Zm281.82,15.69-9.6-10.85q6.84-6.15,13-12.94l10.69,9.79Q440.5,441.84,433.08,448.49Z"/>
    <g id="numbers">
      <g>
        <path d="M295.42,185.39l-11.46.15,0-1.54,2.12,0-4-21.78-4.21,21.89,2.12,0,0,1.54-6.23.08,0-1.54,2.12,0,5.22-26.83-5.48-29.61-2.15,0,0-1.53,11.49-.15,0,1.54-2.12,0,3.65,19.33,3.74-19.43-2.12,0V126l6.18-.07,0,1.53-2.12,0-4.88,24.3,6,32.13,2.12,0Zm-5.71-1.46-10.46-56.32-1.71,0L288,184Z"/>
        <path d="M308.36,185.23l-11,.14,0-1.54,2.11,0-.71-56.44-2.12,0,0-1.53,11-.14,0,1.53-2.11,0,.71,56.44,2.11,0Zm-5.53-1.47-.72-56.44-1.7,0,.71,56.44Z"/>
        <path d="M322.31,185.05l-11,.14,0-1.53,2.12,0-.72-56.44-2.11,0,0-1.54,11-.14,0,1.54-2.12,0,.71,56.44,2.12,0Zm-5.54-1.46-.71-56.44-1.7,0,.71,56.44Z"/>
      </g>
      <path d="M363.4,203l-9.61-5.44.75-1.33,1.85,1,27.8-49.13-1.84-1,.75-1.33,9.61,5.43-.75,1.34-1.85-1-27.8,49.12,1.84,1Zm-4-4.06,27.8-49.12-1.48-.84-27.8,49.13Z"/>
      <g>
        <path d="M399.62,241.23l-5.57-9.54,1.33-.77,1.07,1.83L445.2,204.3l-1.07-1.83,1.33-.77,5.56,9.54-1.32.77-1.07-1.83-48.75,28.45,1.06,1.83Zm-1.46-5.54,48.75-28.45-.85-1.47L397.3,234.22Z"/>
        <path d="M406.64,253.27l-5.56-9.53,1.33-.78,1.06,1.83,48.76-28.44-1.07-1.83,1.33-.77,5.56,9.53-1.33.77-1.06-1.82L406.9,250.67,408,252.5Zm-1.45-5.54,48.75-28.44-.86-1.47-48.75,28.44Z"/>
      </g>
      <g>
        <path d="M414.64,291.21v-11h1.53v2.12l56.44,0v-2.12h1.53v11h-1.53v-2.11l-56.44,0v2.11Zm1.54-5.52,56.44,0V284l-56.44,0Z"/>
        <path d="M414.65,305.16v-11h1.53v2.11l56.45,0v-2.11h1.53v11h-1.54V303l-56.44,0v2.12Zm1.53-5.52,56.45,0v-1.7l-56.45,0Z"/>
        <path d="M414.66,319.1v-11h1.54v2.12l56.45,0V308h1.54v11h-1.54V317l-56.45,0v2.11Zm1.53-5.52,56.45,0v-1.7l-56.45,0Z"/>
      </g>
      <g>
        <path d="M401.49,353.67l5.55-9.54,1.33.78-1.07,1.83,48.79,28.39,1.06-1.83,1.33.77-5.55,9.54-1.33-.77,1.06-1.83-48.78-28.39-1.07,1.83Zm4.1-4,48.79,28.39.85-1.47-48.78-28.39Z"/>
        <path d="M439.32,403.93l1.07-1.83-47.11-34.33,3.41-5.85,52.91,24.36,1.06-1.82,1.33.77-5.56,9.54-1.32-.77,1.06-1.83-46.25-21.78,41.53,29.88,1.09-1.86,1.33.77-3.22,5.53Zm-43-38.33,51.56,23.62.86-1.47-51.58-23.58Z"/>
      </g>
      <path d="M375.16,457l1.84-1-23.42-53.38,5.89-3.34L392.92,447l1.84-1,.76,1.34-9.61,5.44-.76-1.33,1.85-1.05-29-42.1,20.84,46.73,1.87-1.06.76,1.33-5.56,3.16ZM357.3,402.26,390,448.63l1.48-.84-32.7-46.34Z"/>
      <g>
        <path d="M309.39,414.79l11,.13v1.53l-2.12,0-.65,56.44,2.11,0v1.53l-11-.13,0-1.53,2.11,0,.65-56.44-2.11,0Zm5.51,1.6-.65,56.44,1.7,0,.65-56.44Z"/>
        <path d="M284.32,472.49l2.12,0,6.64-57.91,6.77.08,4.89,58,2.12,0,0,1.53-11-.13,0-1.53,2.12,0-3.86-51-5.52,50.87,2.15,0v1.54l-6.4-.08Zm12.15-56.31,4.87,56.5,1.7,0-4.91-56.5Z"/>
      </g>
      <g>
        <path d="M258.05,405.92l9.47,5.66-.79,1.32-1.81-1.08-29,48.43,1.81,1.09-.79,1.32L227.49,457l.79-1.32,1.81,1.09,29-48.44-1.81-1.09Zm3.95,4.15-29,48.44,1.46.87,29-48.44Z"/>
        <path d="M246.08,398.76l9.47,5.67-.78,1.31L253,404.66l-29,48.43,1.81,1.09L225,455.5l-9.48-5.67.79-1.32,1.82,1.09,29-48.44-1.82-1.09Zm3.95,4.15-29,48.44,1.46.87,29-48.44Z"/>
        <path d="M195.37,436l1.82,1.09,34.89-46.69,5.81,3.48-25,52.61,1.82,1.08-.79,1.32-9.47-5.67.78-1.32,1.82,1.09,22.34-46L199,438.16l1.85,1.1-.79,1.32-5.48-3.28Zm38.84-42.53L210,444.72l1.46.87,24.21-51.29Z"/>
      </g>
      <g>
        <path d="M211.74,376.51l5.33,9.66-1.34.74-1-1.85-49.43,27.26,1,1.85-1.34.75-5.33-9.67,1.34-.74,1,1.85,49.43-27.26-1-1.85Zm1.32,5.57-49.42,27.26.82,1.49,49.43-27.26Z"/>
        <path d="M205,364.29l5.33,9.67-1.34.74-1-1.85-49.42,27.26,1,1.85-1.35.75L152.89,393l1.35-.75,1,1.86,49.43-27.26-1-1.85Zm1.32,5.58L156.9,397.13l.82,1.49,49.43-27.26Z"/>
        <path d="M198.27,352.08l5.33,9.67-1.34.74-1-1.85L151.81,387.9l1,1.85-1.34.74-5.33-9.66,1.34-.75,1,1.86L198,354.68l-1-1.86Zm1.32,5.58-49.42,27.26.82,1.49,49.43-27.26Z"/>
        <path d="M135.72,358.71l1,1.86L190.4,337.8l3.26,5.92L145.58,376.6l1,1.85-1.35.74-5.33-9.67,1.35-.74,1,1.85,42.45-28.48-47,20.27,1,1.89-1.34.74-3.09-5.59Zm55-17.19-46.76,32.09.83,1.49L191.5,343Z"/>
      </g>
      <g>
        <path d="M185.08,310l-.27,11-1.53,0,.05-2.12-56.43-1.33-.05,2.11-1.54,0,.27-11,1.53,0,0,2.12,56.43,1.33,0-2.11Zm-1.67,5.49L127,314.15l0,1.7,56.43,1.34Z"/>
        <path d="M185.63,286.48l-.27,11.45-1.53,0,0-2.11L162,299l21.72,5,0-2.11,1.54,0-.15,6.23-1.54,0,0-2.12L157,299.79l-29.79,4.41,0,2.15-1.53,0,.27-11.5,1.54,0,0,2.12,19.45-3-19.28-4.44,0,2.12-1.54,0,.15-6.18,1.54,0,0,2.12,24.1,5.76,32.34-4.84,0-2.12ZM184,292.13l-56.66,8.41,0,1.71,56.66-8.42Z"/>
      </g>
      <path d="M205.69,234.62l-6,9.75-1.31-.8,1.11-1.8-20.56-8.26,16.25,15.26,1.11-1.81,1.31.81-3.26,5.3-1.31-.8,1.11-1.81L174.25,231.7l-28-11.19-1.13,1.84-1.3-.81,6-9.79,1.31.81-1.11,1.8,18.29,7.25L154,208.07l-1.11,1.8-1.31-.81,3.24-5.26,1.31.8L155,206.4l17.93,17.12,30.37,12.09,1.11-1.8Zm-4.29,4L148.21,217.4l-.89,1.45,53.19,21.25Z"/>
      <g>
        <path d="M245.08,200.42,235,205.83l-.73-1.36,1.87-1L222.52,186l6.36,21.36,1.87-1,.72,1.35L226,210.65l-.73-1.35,1.87-1-7.75-26.23-18.51-23.74-1.9,1-.73-1.36,10.13-5.43.73,1.36-1.87,1,12.16,15.47-5.64-19-1.87,1-.72-1.36,5.45-2.92.72,1.36-1.87,1,6.88,23.81,20.15,25.74,1.87-1Zm-5.74,1.33L204.09,156.6l-1.5.81,35.25,45.14Z"/>
        <path d="M256.5,194.3l-9.74,5.22-.72-1.36,1.87-1-26.66-49.75-1.87,1-.73-1.35,9.73-5.22.73,1.36-1.86,1L253.91,194l1.86-1Zm-5.59,1.25L224.25,145.8l-1.5.81,26.66,49.75Z"/>
      </g>
    </g>
  </g>
  <rect id="frame_holder" width="600" height="600" fill="none"/>
  <path id="sec_hand" d="M303.55,138c-2-5-3-15-3-15h-1s-1,10-3,15-7.5,6.5-6.5,15.5a12.74,12.74,0,0,0,8.5,10.51V300.5h3V164a12.71,12.71,0,0,0,8.39-10.47C310.94,144.5,305.55,143,303.55,138Z"/>
  <circle id="clock_center" cx="300" cy="300" r="5"/>
  <path id="hour_hand" d="M303.55,206c-2-5-3-15-3-15h-1s-1,10-3,15-7.5,6.5-6.5,15.5a12.74,12.74,0,0,0,8.5,10.51V300.5h3V232a12.71,12.71,0,0,0,8.39-10.47C310.94,212.5,305.55,211,303.55,206Z"/>
  <rect id="frame_holder-2" data-name="frame_holder" width="600" height="600" fill="none"/>
  <path id="min_hand" d="M303.55,174c-2-5-3-15-3-15h-1s-1,10-3,15-7.5,6.5-6.5,15.5a12.74,12.74,0,0,0,8.5,10.51V300.5h3V200a12.71,12.71,0,0,0,8.39-10.47C310.94,180.5,305.55,179,303.55,174Z"/>
</svg>
